# xmcd CD database file
#
# Track frame offsets:
#	150
#	30046
#	48122
#	69576
#	99013
#	126445
#	146651
#	168248
#	195205
#	223608
#	245992
#	266185
#	287261
#
# Disc length: 4021 seconds
#
# Revision: 5
# Processed by: cddbd v1.5.2PL0 Copyright (c) Steve Scherf et al.
# Submitted via: CDex 1.70beta2
#
DISCID=b20fb30d
DTITLE=Robben Ford, Ron Thal, Paul Personne - Lost in Paris Blues Band
DYEAR=2016
DGENRE=Blues
TTITLE0=Downtown
TTITLE1=Fire Down Below
TTITLE2=Little Red Rooster
TTITLE3=I Don't Need No Doctor
TTITLE4=One Good Man
TTITLE5=Tell Me
TTITLE6=You're Killing My Love
TTITLE7=It's All Over Now
TTITLE8=Trouble No More
TTITLE9=Evil Gal Blues
TTITLE10=I Can't Hold Out
TTITLE11=Watching the River Flow
TTITLE12=Driftin' Blues
EXTD=YEAR: 2016
EXTT0=
EXTT1=
EXTT2=
EXTT3=
EXTT4=
EXTT5=
EXTT6=
EXTT7=
EXTT8=
EXTT9=
EXTT10=
EXTT11=
EXTT12=
PLAYORDER=
